<svg xmlns="http://www.w3.org/2000/svg" viewBox="0 0 214.1703 68.475">
    <defs>
        <style>.cls-1{fill:#fff;}</style>
    </defs>
    <title>ImperialVisualisations_logo_text_White</title>
    <g id="Layer_2" data-name="Layer 2">
        <g id="Layer_1-2" data-name="Layer 1">
            <path class="cls-1" d="M48.5269,29.4289V3.934H53.47V29.4289Z"/>
            <path class="cls-1"
                  d="M82.5732,15.2978V29.4289H77.8156V16.0357c0-2.4351-.9663-3.1361-2.1559-3.1361-1.6354,0-2.6389,1.1438-3.7169,2.9516V29.4289H67.1852V16.0357c0-2.4351-1.0035-3.1361-2.1558-3.1361-1.6726,0-2.6761,1.1438-3.754,2.9516V29.4289H56.5178V9.911h4.1257l.3717,2.5459a6.68,6.68,0,0,1,5.6869-3.0993A4.79,4.79,0,0,1,71.46,12.6413a7.0147,7.0147,0,0,1,5.91-3.2837C80.4917,9.3576,82.5732,11.6082,82.5732,15.2978Z"/>
            <path class="cls-1"
                  d="M102.9773,19.6146c0,5.9772-2.7876,10.3677-7.7683,10.3677a6.2356,6.2356,0,0,1-4.9435-2.14v9.1132l-4.7576.5165V9.911h4.1629l.26,2.3983a7.1715,7.1715,0,0,1,5.6868-2.9517C100.8216,9.3576,102.9773,13.3793,102.9773,19.6146Zm-4.9807.0369c0-4.944-1.338-6.7519-3.7912-6.7519a4.8669,4.8669,0,0,0-3.94,2.6565v8.7811a4.17,4.17,0,0,0,3.6054,2.0294C96.4728,26.3666,97.9966,24.3741,97.9966,19.6515Z"/>
            <path class="cls-1"
                  d="M122.7129,21.1274h-12.34c.3347,3.9847,2.23,5.276,4.8321,5.276a8.21,8.21,0,0,0,4.9062-1.734l1.97,2.6933a11.3559,11.3559,0,0,1-7.2852,2.62c-6.0957,0-9.3665-4.0216-9.3665-10.1831,0-5.94,3.1591-10.4416,8.7347-10.4416,5.5008,0,8.66,3.69,8.66,9.8512C122.8243,19.836,122.75,20.6108,122.7129,21.1274Zm-4.6091-3.2837c0-3.21-1.1522-5.1285-3.8283-5.1285-2.23,0-3.6426,1.4758-3.9028,5.35h7.7311Z"/>
            <path class="cls-1"
                  d="M137.3932,9.6527l-.8177,4.5751a6.664,6.664,0,0,0-1.747-.2214c-2.3788,0-3.6052,1.7342-4.3487,5.0179V29.4289h-4.7576V9.911h4.1256l.4461,3.8371c.9294-2.804,2.8249-4.3536,5.1295-4.3536A6.8682,6.8682,0,0,1,137.3932,9.6527Z"/>
            <path class="cls-1"
                  d="M140.3659,29.4289V9.911h4.7577V29.4289Zm5.2489-26.5613A2.8889,2.8889,0,1,1,142.726,0,2.8782,2.8782,0,0,1,145.6148,2.8676Z"/>
            <path class="cls-1"
                  d="M165.38,26.7724l-1.0034,3.1362c-2.156-.1846-3.5683-.9594-4.3489-2.841a6.71,6.71,0,0,1-5.8726,2.9147c-3.94,0-6.3559-2.472-6.3559-6.014,0-4.243,3.2336-6.53,8.9577-6.53H159.21V16.3309c0-2.5458-1.1521-3.3944-3.68-3.3944a17.6575,17.6575,0,0,0-5.2038,1.0331l-1.115-3.21a20.4192,20.4192,0,0,1,7.1365-1.4021c5.2408,0,7.5454,2.3982,7.5454,6.715v8.1909C163.8934,25.85,164.4138,26.4034,165.38,26.7724Zm-6.17-2.62V20.205h-1.97c-3.0851,0-4.6091,1.1068-4.6091,3.3944,0,1.8817.9665,2.9516,2.7878,2.9516A4.2054,4.2054,0,0,0,159.21,24.1528Z"/>
            <path class="cls-1"
                  d="M173.4817,26.182a3.7158,3.7158,0,0,0,1.1152-.1844L175.6,29.3182a8.9042,8.9042,0,0,1-3.3822.6641c-2.9366,0-4.6091-1.7341-4.6091-4.9809V2.0892l4.7576-.5165V24.6694C172.3666,25.7393,172.7011,26.182,173.4817,26.182Z"/>
            <path class="cls-1" d="M7.8426,67.9216,0,42.4267H5.278l5.5753,21.1781L16.28,42.4267h5.0178l-7.62,25.4949Z"/>
            <path class="cls-1" d="M23.2244,67.9216V48.4037H27.982V67.9216ZM28.008,44.24H23.2244V39.4911H28.008Z"/>
            <path class="cls-1"
                  d="M45.5667,50.1748l-1.8586,2.8409a8.4868,8.4868,0,0,0-4.8319-1.66c-2.0071,0-3.085.7748-3.085,1.9555,0,1.2912.78,1.8816,4.1258,2.804,4.0142,1.07,6.2815,2.6934,6.2815,6.1616,0,4.0585-3.7912,6.1984-8.2886,6.1984a11.555,11.555,0,0,1-7.8428-2.7672l2.416-2.6933a8.5214,8.5214,0,0,0,5.278,1.9554c2.1559,0,3.5311-.9224,3.5311-2.2875,0-1.6972-.7806-2.2138-4.46-3.2468-4.0514-1.1069-5.8356-3.0255-5.8356-5.9034,0-3.2467,3.0108-5.6819,7.5826-5.6819A11.1133,11.1133,0,0,1,45.5667,50.1748Z"/>
            <path class="cls-1"
                  d="M60.35,67.9216l-.26-2.73a6.67,6.67,0,0,1-6.0213,3.2837c-3.5682,0-5.5011-2.2875-5.5011-6.0509v-14.02h4.7577v13.43c0,2.2874.7805,3.0623,2.416,3.0623,1.5983,0,2.9364-1.07,3.9771-2.7672V48.4037H64.476V67.9216Z"/>
            <path class="cls-1"
                  d="M83.9483,65.2651,82.945,68.4013c-2.1561-.1846-3.5684-.9594-4.3489-2.841a6.71,6.71,0,0,1-5.8727,2.9147c-3.94,0-6.3559-2.472-6.3559-6.014,0-4.243,3.2337-6.53,8.9578-6.53h2.4531v-1.107c0-2.5457-1.1522-3.3944-3.68-3.3944a17.66,17.66,0,0,0-5.2037,1.0331l-1.1151-3.21A20.42,20.42,0,0,1,74.9163,47.85c5.2409,0,7.5454,2.3982,7.5454,6.715v8.191C82.4617,64.3428,82.9821,64.8962,83.9483,65.2651Zm-6.17-2.62V58.6977h-1.97c-3.0851,0-4.6091,1.1068-4.6091,3.3944,0,1.8817.9665,2.9516,2.7878,2.9516A4.2057,4.2057,0,0,0,77.7784,62.6455Z"/>
            <path class="cls-1"
                  d="M91.3886,64.6748a3.717,3.717,0,0,0,1.1153-.1845l1.0033,3.3206a8.9042,8.9042,0,0,1-3.3822.6641c-2.9365,0-4.6091-1.7341-4.6091-4.9809V40.5819l4.7577-.5165V63.1621C90.2736,64.2321,90.608,64.6748,91.3886,64.6748Z"/>
            <path class="cls-1" d="M95.5946,67.9216V48.4037h4.7576V67.9216Zm2.36-30.2012,3.7912,6.5183H94.1635Z"/>
            <path class="cls-1"
                  d="M117.9369,50.1748l-1.8584,2.8409a8.4872,8.4872,0,0,0-4.8322-1.66c-2.007,0-3.0849.7748-3.0849,1.9555,0,1.2912.7806,1.8816,4.1256,2.804,4.0145,1.07,6.2817,2.6934,6.2817,6.1616,0,4.0585-3.7912,6.1984-8.2886,6.1984a11.555,11.555,0,0,1-7.8428-2.7672l2.416-2.6933a8.5214,8.5214,0,0,0,5.278,1.9554c2.1557,0,3.5312-.9224,3.5312-2.2875,0-1.6972-.7806-2.2138-4.46-3.2468-4.0516-1.1069-5.8355-3.0255-5.8355-5.9034,0-3.2467,3.0106-5.6819,7.5823-5.6819A11.113,11.113,0,0,1,117.9369,50.1748Z"/>
            <path class="cls-1"
                  d="M137.6435,65.2651,136.64,68.4013c-2.1561-.1846-3.5684-.9594-4.349-2.841a6.71,6.71,0,0,1-5.8726,2.9147c-3.94,0-6.3559-2.472-6.3559-6.014,0-4.243,3.2336-6.53,8.9578-6.53h2.453v-1.107c0-2.5457-1.1521-3.3944-3.68-3.3944a17.6608,17.6608,0,0,0-5.2038,1.0331l-1.115-3.21a20.42,20.42,0,0,1,7.1365-1.4021c5.2409,0,7.5454,2.3982,7.5454,6.715v8.191C136.1569,64.3428,136.6773,64.8962,137.6435,65.2651Zm-6.17-2.62V58.6977h-1.97c-3.0851,0-4.6091,1.1068-4.6091,3.3944,0,1.8817.9665,2.9516,2.7878,2.9516A4.2054,4.2054,0,0,0,131.4735,62.6455Z"/>
            <path class="cls-1"
                  d="M146.29,68.475c-3.8657-.0368-5.91-2.2137-5.91-6.3829V51.7982h-3.0849V48.4037H140.38V44.0869l4.7576-.5534v4.87h4.572l-.4833,3.3945H145.138V61.9814c0,1.9185.632,2.6934,2.0815,2.6934a4.4347,4.4347,0,0,0,2.3417-.7379l1.6725,3.0623A8.6428,8.6428,0,0,1,146.29,68.475Z"/>
            <path class="cls-1" d="M152.9247,67.9216V48.4037h4.7576V67.9216ZM151.4586,37.72h7.5823L155.25,44.2387Z"/>
            <path class="cls-1"
                  d="M178.2691,58.1442c0,6.1616-3.4567,10.3308-9.2551,10.3308s-9.2551-3.911-9.2551-10.3308c0-6.1246,3.4567-10.2939,9.2922-10.2939C174.85,47.85,178.2691,51.7613,178.2691,58.1442Zm-13.4924,0c0,4.6858,1.45,6.752,4.2373,6.752s4.2373-2.1031,4.2373-6.752-1.45-6.715-4.2-6.715C166.2636,51.4292,164.7767,53.5322,164.7767,58.1442Z"/>
            <path class="cls-1"
                  d="M196.4028,53.7905V67.9216h-4.7576V54.5285c0-2.4352-.9294-3.1362-2.4162-3.1362-1.71,0-2.9735,1.1438-4.1256,2.9517V67.9216h-4.7577V48.4037h4.1256l.3719,2.5459a7.35,7.35,0,0,1,5.984-3.0993C194.3584,47.85,196.4028,50.0641,196.4028,53.7905Z"/>
            <path class="cls-1"
                  d="M213.5385,50.1748,211.68,53.0157a8.487,8.487,0,0,0-4.8322-1.66c-2.0069,0-3.0848.7748-3.0848,1.9555,0,1.2912.78,1.8816,4.1256,2.804,4.0145,1.07,6.2816,2.6934,6.2816,6.1616,0,4.0585-3.7911,6.1984-8.2886,6.1984a11.5549,11.5549,0,0,1-7.8427-2.7672l2.4159-2.6933a8.5219,8.5219,0,0,0,5.278,1.9554c2.1558,0,3.5312-.9224,3.5312-2.2875,0-1.6972-.7805-2.2138-4.46-3.2468-4.0516-1.1069-5.8355-3.0255-5.8355-5.9034,0-3.2467,3.0106-5.6819,7.5823-5.6819A11.113,11.113,0,0,1,213.5385,50.1748Z"/>
        </g>
    </g>
</svg>